# xmcd
#
# Track frame offsets: 
#        150
#        12771
#        22725
#        33822
#        44701
#        52607
#        64129
#        73251
#        85128
#        97616
#        105898
#        117852
#
# Disc length: 1683 seconds
#
# Revision: 0
# Processed by: cddbd v1.5.2PL0 Copyright (c) Steve Scherf et al.
# Submitted via: ExactAudioCopy v0.99pb4
#
DISCID=8106910c
DTITLE=Johnny Cash - Johhny Cash and The Music That Inspired "Walk The L
DTITLE=ine"[CD1]
DYEAR=1900
DGENRE=Country
TTITLE0=Folsome Prison Blues
TTITLE1=Rock Island Line
TTITLE2=I Heard That Lonesome Whistle Blow
TTITLE3=Train Of Love
TTITLE4=If The Good Lord's Willing
TTITLE5=Big River
TTITLE6=Remember Me
TTITLE7=So Doggone Lonesome
TTITLE8=Next In Line
TTITLE9=The Wreck Of The Old '97
TTITLE10=Doin' My Time
TTITLE11=Country Boy
EXTD=
EXTT0=
EXTT1=
EXTT2=
EXTT3=
EXTT4=
EXTT5=
EXTT6=
EXTT7=
EXTT8=
EXTT9=
EXTT10=
EXTT11=
PLAYORDER=
